<?xml version="1.0" encoding="UTF-8"?>
<svg class="logo" fill="#fff" width="793" height="793" version="1.1" viewBox="0 0 209.81 209.81" xmlns="http://www.w3.org/2000/svg">
 <path fill="#fff" d="m105.71 192.93c14.204-2.4278 26.621-8.9501 37.129-19.502l3.9688-3.9855v23.625h43.744v-171.8h-43.744v23.745l-3.7924-3.7462c-6.0038-5.9307-11.73-10.108-18.609-13.576-10.215-5.1498-17.871-6.9154-29.986-6.9154-7.9699 0-11.348 0.40216-17.953 2.1374-12.426 3.2644-25.287 11.075-34.609 21.017-12.193 13.005-20.211 30.001-23.177 49.129-0.99191 6.3973-1.1005 21.332-0.20017 27.529 2.8846 19.852 10.947 36.984 23.549 50.035 4.5411 4.7033 7.9466 7.5705 13.009 10.953 9.8475 6.5793 20.058 10.421 31.444 11.83 3.7502 0.46411 15.431 0.17803 19.227-0.47091zm62.554-10.938c-4.5101-1.2144-6.6209-5.9437-4.1818-9.3691 0.42095-0.59117 0.63549-1.0932 0.47676-1.1156-0.15874-0.0224-0.52673-0.0621-0.81777-0.0882-0.38194-0.0343-0.55884-0.56283-0.6358-1.8996l-0.10663-1.8521h14.501v1.9403c0 1.7403-0.0769 1.9403-0.74613 1.9403-0.70122 0-0.71356 0.0497-0.20515 0.82564 0.95039 1.4505 1.3269 3.4719 0.92065 4.9431-0.56222 2.0362-2.5437 4.0081-4.6587 4.6362-2.0977 0.62294-2.369 0.62527-4.5462 0.0391zm4.6766-4.4196c1.645-1.645 1.2864-4.451-0.70001-5.4783-2.6301-1.3601-5.3244 0.14876-5.3244 2.9817 0 1.1493 0.22245 1.6878 1.0312 2.4966 0.80875 0.80875 1.3473 1.0312 2.4966 1.0312 1.1493 0 1.6878-0.22245 2.4966-1.0312zm-9.9049-13.408v-1.7887h4.0683c5.7864 0 7.2206-0.73435 7.2206-3.697 0-2.6355-2.2656-3.7062-7.8493-3.7094l-3.4396-2e-3v-3.5278h14.464v1.7639c0 1.7462-0.0112 1.7639-1.1198 1.7639h-1.1198l0.72297 0.79375c1.1724 1.2872 1.5167 2.2268 1.5167 4.1395 0 2.202-0.6496 3.5382-2.3521 4.8381-1.269 0.96892-1.4009 0.9906-6.7032 1.1014l-5.4087 0.11303zm-64.389-14.469c-8.8945-1.0275-17.358-5.0305-23.94-11.324-4.8832-4.6684-7.7955-8.956-10.232-15.063-3.6557-9.1652-3.7919-21.22-0.34868-30.865 4.9274-13.802 16.969-24.111 31.504-26.972 4.0524-0.79769 12.21-0.77259 16.076 0.0495 15 3.1891 26.836 13.509 31.873 27.79 3.0864 8.7508 3.1524 19.599 0.16957 27.9-4.4792 12.466-13.994 21.984-26.451 26.46-5.0155 1.8022-13.039 2.6731-18.651 2.0248zm64.389-0.0195c0-0.19632-0.94689-0.35278-2.1351-0.35278h-2.1351l0.21326-3.7042 2.0285-0.1058c1.8887-0.0985 2.0285-0.16536 2.0285-0.97014 0-0.78922 0.13798-0.86434 1.5875-0.86434 1.4582 0 1.5875 0.0719 1.5875 0.88194v0.88195h3.9136c3.6169 0 3.9276-0.0535 4.0981-0.70556 0.15324-0.58599 0.4812-0.70555 1.9353-0.70555h1.7508l-0.24061 1.1465c-0.72652 3.4621-1.9582 4.1438-7.4884 4.1446-2.4103 3.4e-4 -3.9688 0.13908-3.9688 0.35333 0 0.19403-0.71437 0.35278-1.5875 0.35278-0.87312 0-1.5875-0.15875-1.5875-0.35278zm4.4097-7.0188c-1.7292-0.80058-3.1353-2.2549-3.8618-3.9942-1.7708-4.2392 1.2337-9.2822 5.791-9.7201 2.8794-0.27667 4.1498 0.14368 5.9871 1.981 2.5347 2.5347 3.0041 5.36 1.4158 8.5215-1.704 3.3919-5.8563 4.8209-9.332 3.2117zm5.7326-4.4599c1.8545-2.1211 0.0974-5.8074-2.7681-5.8074-1.0055 0-2.7032 0.94598-3.1304 1.7444-0.71811 1.3418-0.43717 3.3457 0.6069 4.329 0.53359 0.50251 1.2876 0.97831 1.6757 1.0573 1.1564 0.23551 2.7691-0.35468 3.616-1.3233zm-10.142-13.039c0-1.504 0.12102-1.9403 0.53823-1.9403 0.48244 0 0.48244-0.10786 0-1.0408-0.75959-1.4689-0.66899-2.9009 0.2714-4.2898l0.80963-1.1958-0.80963-1.1987c-1.422-2.1054-0.91632-4.457 1.2762-5.9345 1.1177-0.75324 1.5488-0.80434 6.7858-0.80434h5.5923v3.5278h-4.9137c-5.2004 0-6.0224 0.24075-6.0224 1.7639 0 1.5231 0.82202 1.7639 6.0224 1.7639h4.9137v3.8806h-5.0447c-5.3054 0-5.8914 0.15948-5.8914 1.6034 0 1.6358 0.91679 1.9244 6.1132 1.9244h4.8229v3.8806h-14.464zm4.4097-18.672c-1.7538-0.64193-3.9638-3.0502-4.2631-4.6458-0.30046-1.6016 0.069-3.3999 0.921-4.4831 0.90079-1.1452 0.87829-1.3031-0.18565-1.3031-0.82315 0-0.88195-0.11759-0.88195-1.7639v-1.7639h14.464v1.7639c0 1.6406-0.0609 1.7639-0.87131 1.7639h-0.87132l0.87132 1.284c1.8973 2.7958 0.93048 6.704-2.1256 8.5928-1.639 1.013-5.0693 1.2828-7.0573 0.55523zm5.5563-4.4394c1.2676-1.3912 1.2969-3.0806 0.0787-4.5284-2.149-2.554-6.1641-1.1513-6.1641 2.1534 0 1.7874 0.5081 2.6768 1.8799 3.2903 1.5312 0.68488 3.0485 0.35465 4.2056-0.91529zm-7.4859-12.088c-0.47925-0.2425-1.2475-0.99422-1.7071-1.6705-1.7127-2.5196-0.15462-6.5972 2.5976-6.7982 0.96931-0.0708 1.0468 0.0169 1.152 1.3024 0.0939 1.1468-0.0468 1.5055-0.83746 2.136-0.89333 0.71232-0.91442 0.79353-0.35217 1.3558 1.1768 1.1768 1.9584 0.66034 2.68-1.7706 0.58901-1.9844 1.7038-2.9687 3.5784-3.1596 2.7131-0.27619 4.9902 1.8214 4.9902 4.5968 0 1.8308-0.93532 3.3364-2.4714 3.9782-1.7532 0.73252-1.8795 0.63721-1.8795-1.4181 0-1.6024 0.11022-1.928 0.70555-2.0836 0.89756-0.23471 0.91211-1.1735 0.0255-1.648-1.0707-0.57303-1.6851-0.0955-2.125 1.6518-0.57607 2.2878-2.3342 3.9807-4.127 3.9738-0.74701-3e-3 -1.7503-0.20362-2.2296-0.44612zm-6.7134-12.249v-1.7639h6.3287l-0.85305-1.257c-1.2444-1.8337-1.4698-3.9519-0.62211-5.847 1.3927-3.1135 3.0614-3.795 9.3457-3.8166l4.4979-0.0155v3.4702l-4.3824 0.11697c-4.0628 0.10843-4.4483 0.17897-5.2863 0.96713-1.7827 1.6768-1.5058 4.4056 0.57583 5.6747 0.9735 0.59354 1.7799 0.70461 5.1241 0.70572l3.9688 1e-3v3.5278h-18.697zm4.3031-16.316 0.10663-1.8521 4.6474-0.17639c4.3089-0.16353 4.7137-0.2387 5.5563-1.0316 1.3544-1.2746 1.2779-3.4213-0.17164-4.8114-1.0659-1.0222-1.1422-1.0377-5.6619-1.1527l-4.5814-0.11657 0.10564-1.8237 0.10565-1.8237 14.288-0.191v1.9476c0 1.9432-2e-3 1.9476-1.0949 1.9476h-1.0949l1.0949 1.247c1.3872 1.5799 1.5686 3.7604 0.5166 6.2094-1.1556 2.6903-3.2814 3.4797-9.3706 3.4797h-4.5519zm-0.0698-16.492c0-1.641 0.0608-1.7639 0.87202-1.7639h0.87202l-0.90075-1.6757c-2.2613-4.2069 0.73259-8.7471 6.0593-9.1888 5.6492-0.46848 9.6355 5.2401 6.69 9.5806l-0.87132 1.284h5.976v3.5278h-18.697zm9.7367-2.9633c1.4245-1.4245 1.6072-3.1259 0.48837-4.5483-2.1277-2.7049-6.3445-1.4043-6.3445 1.9569 0 1.7043 0.45064 2.5713 1.6846 3.2409 1.6085 0.87289 2.841 0.68098 4.1716-0.64954z"/>
</svg>
