<?xml version="1.0" standalone="no"?>
<svg version="1.0" xmlns="http://www.w3.org/2000/svg"
 width="300.000000pt" height="97.000000pt" viewBox="0 0 300.000000 97.000000"
 preserveAspectRatio="xMidYMid meet">
<g transform="translate(0.000000,97.000000) scale(0.100000,-0.100000)"
fill="#000000" stroke="none">
<path d="M533 663 c-21 -8 -15 -30 10 -37 35 -9 115 -7 122 4 3 5 -21 11 -57
13 l-63 3 66 2 c53 2 68 -1 73 -14 12 -32 -5 -37 -95 -31 -82 6 -88 5 -94 -14
-12 -38 11 -49 105 -49 l88 0 -4 -37 c-3 -21 -8 -65 -12 -98 l-7 -60 -48 -3
c-55 -4 -53 -6 -66 101 -9 76 -15 96 -26 85 -9 -9 14 -179 26 -194 15 -18 113
-19 127 -1 5 6 15 55 22 107 7 61 17 101 28 113 13 15 14 21 4 35 -7 9 -17 28
-23 42 -5 13 -16 28 -22 32 -13 8 -135 9 -154 1z m184 -88 c-5 -13 -199 -14
-204 0 -2 6 37 10 102 10 69 1 104 -3 102 -10z"/> 
<path d="M868 601 c-28 -27 -36 -51 -18 -51 6 0 15 10 19 23 6 16 10 -1 12
-61 3 -49 0 -84 -6 -86 -21 -9 22 -26 54 -22 52 8 74 33 67 78 -3 20 -2 40 4
43 18 11 11 53 -12 69 -12 9 -35 16 -50 16 -16 0 -28 5 -28 10 0 16 -13 10
-42 -19z m100 -24 c6 -5 12 -20 12 -33 0 -20 -5 -24 -30 -24 -20 0 -30 -5 -30
-15 0 -9 9 -15 25 -15 14 0 28 -7 32 -15 7 -20 -24 -55 -49 -55 -16 0 -18 9
-18 83 0 46 3 86 6 90 7 6 33 -1 52 -16z"/>
<path d="M2182 618 c-6 -7 -13 -30 -17 -50 -4 -21 -11 -38 -16 -38 -6 0 -14
-10 -19 -22 l-9 -23 0 22 c-1 28 -15 36 -51 28 -23 -5 -35 -18 -53 -53 -15
-30 -31 -48 -44 -50 -26 -4 -37 25 -24 62 11 28 31 35 31 11 0 -8 5 -15 10
-15 16 0 12 40 -5 46 -41 16 -89 -61 -65 -105 13 -25 61 -28 80 -6 12 14 15
14 31 0 29 -27 71 -15 90 24 22 48 31 25 23 -62 -5 -61 -4 -75 10 -86 31 -26
49 8 57 101 l6 83 1 -78 c2 -60 5 -79 18 -84 28 -11 39 15 39 97 0 55 4 80 12
80 7 0 13 -18 15 -42 3 -39 6 -43 31 -46 16 -2 36 3 46 13 16 14 19 14 31 0
21 -25 66 -19 88 13 22 32 34 62 24 62 -4 -1 -16 -15 -27 -33 -11 -18 -29 -32
-39 -32 -31 0 -28 19 4 37 33 19 38 39 15 58 -24 20 -54 1 -78 -48 -22 -48
-52 -66 -68 -41 -5 9 1 17 22 26 21 9 29 19 29 38 0 33 -23 42 -55 21 -13 -9
-31 -16 -39 -16 -21 0 -31 46 -17 73 10 19 11 17 7 -18 l-5 -40 14 31 c15 34
10 74 -10 74 -14 0 -35 -42 -35 -69 0 -11 -7 -22 -16 -25 -13 -5 -14 -9 -5
-20 15 -18 -5 -34 -21 -18 -7 7 -5 25 7 56 23 59 8 100 -23 64z m20 -43 c-2
-14 -9 -28 -15 -32 -7 -4 -8 0 -4 11 4 10 7 24 7 32 0 8 4 14 9 14 4 0 6 -11
3 -25z m-102 -76 c0 -18 -2 -19 -15 -9 -8 7 -15 16 -15 21 0 5 7 9 15 9 9 0
15 -9 15 -21z m260 7 c0 -16 -28 -42 -36 -33 -8 7 14 47 26 47 6 0 10 -6 10
-14z m100 0 c0 -7 -7 -19 -15 -26 -12 -10 -15 -9 -15 7 0 11 3 23 7 26 11 12
23 8 23 -7z m-376 -36 c24 0 16 -34 -8 -38 -22 -5 -36 14 -36 48 1 23 2 24 14
8 7 -10 21 -18 30 -18z m184 -45 c0 -22 -3 -51 -8 -65 -13 -45 -23 4 -15 78 6
49 10 62 16 47 4 -11 7 -38 7 -60z m-68 -13 c0 -55 -9 -92 -21 -92 -10 0 -12
133 -3 143 14 14 24 -7 24 -51z"/>
<path d="M1032 528 c-7 -7 -12 -36 -12 -65 0 -58 16 -69 52 -36 17 15 18 15
18 0 0 -20 30 -23 48 -5 9 9 12 9 12 0 0 -20 38 -13 54 10 9 13 16 17 16 9 0
-7 -16 -31 -35 -52 -19 -22 -35 -48 -35 -59 0 -26 34 -44 59 -31 24 13 31 32
31 89 0 36 6 52 27 74 14 15 23 31 19 35 -4 4 -16 -3 -27 -17 -22 -27 -22 -26
-3 40 4 14 1 20 -11 20 -16 0 -19 -6 -29 -50 -6 -28 -32 -68 -39 -60 -3 3 -1
27 4 54 10 55 9 59 -15 50 -10 -4 -16 -18 -16 -38 -1 -30 -25 -75 -35 -64 -3
3 -1 27 5 53 6 26 8 50 6 53 -10 10 -36 -21 -36 -42 0 -25 -28 -69 -39 -61 -5
2 -5 24 0 47 4 24 8 46 9 51 0 11 -15 8 -28 -5z m179 -173 c-6 -40 -23 -51
-29 -20 -3 15 26 71 33 63 1 -1 0 -21 -4 -43z"/>
<path d="M1352 528 c-18 -18 -16 -114 3 -122 10 -4 15 1 15 15 0 11 8 34 18
52 l17 32 3 -47 c2 -34 7 -48 18 -48 9 0 14 11 14 33 0 32 14 57 33 57 5 0 7
-19 5 -42 -2 -35 1 -43 15 -46 10 -2 24 4 31 14 12 15 13 15 19 0 11 -28 62
-20 91 15 23 26 35 59 22 59 -2 0 -14 -16 -26 -36 -16 -25 -28 -34 -43 -32
-32 5 -30 22 4 35 25 10 30 16 27 40 -6 54 -70 33 -83 -27 -3 -16 -13 -34 -21
-41 -13 -11 -14 -6 -8 38 8 60 -6 75 -40 44 -23 -22 -23 -22 -29 -2 -7 30 -24
26 -42 -9 -9 -16 -18 -30 -20 -30 -2 0 -2 14 2 30 6 31 -4 39 -25 18z m248
-23 c0 -8 -9 -19 -20 -25 -23 -12 -25 -7 -10 21 13 22 30 25 30 4z"/>
<path d="M1729 519 c-15 -15 -19 -31 -17 -62 3 -36 7 -43 27 -45 13 -2 28 2
33 10 7 10 11 10 15 1 10 -27 43 -13 63 27 23 45 24 50 10 50 -5 0 -10 -6 -10
-14 0 -8 -9 -24 -21 -37 l-20 -24 6 55 6 55 -36 2 c-25 1 -43 -5 -56 -18z m57
-13 c6 -16 -22 -76 -35 -76 -17 0 -20 45 -5 67 17 26 32 29 40 9z"/>
</g>
</svg>
